<?xml version="1.0"?>
<svg xmlns="http://www.w3.org/2000/svg" xmlns:xlink="http://www.w3.org/1999/xlink" version="1.1" viewBox="0 0 224 224" width="30px" height="30px"><g fill="none" fill-rule="nonzero" stroke="none" stroke-width="1" stroke-linecap="butt" stroke-linejoin="miter" stroke-miterlimit="10" stroke-dasharray="" stroke-dashoffset="0" font-family="none" font-weight="none" font-size="none" text-anchor="none" style="mix-blend-mode: normal"><path d="M0,224v-224h224v224z" fill="none"/><g fill="#ffffff"><path d="M112,22.4c-49.40693,0 -89.6,40.19307 -89.6,89.6c0,49.40693 40.19307,89.6 89.6,89.6c49.40693,0 89.6,-40.19307 89.6,-89.6c0,-49.40693 -40.19307,-89.6 -89.6,-89.6zM149.33333,135.1392c0,6.3392 -5.11467,14.19413 -16.79253,14.19413c-10.43093,0 -13.0592,-6.68267 -13.0592,-11.2c0,-5.54773 3.34507,-11.2224 13.07413,-11.2224c8.81067,0 9.3184,-2.24 9.3184,-6.68267v-30.3744l-52.26667,5.80907c0,17.03147 0,44.38187 0,46.93547c-0.00747,6.34667 -5.12213,14.2016 -16.8,14.2016c-10.43093,0 -13.0592,-6.68267 -13.0592,-11.2c0,-5.54773 3.34507,-11.2224 13.07413,-11.2224c8.81067,0 9.3184,-2.24 9.3184,-6.68267v-49.2576c0,-2.47147 1.8592,-4.5472 4.31573,-4.82347l57.49333,-6.39147c2.8672,-0.3136 5.38347,1.94133 5.38347,4.83093c0,0 0,60.5696 0,63.08587z"/></g></g></svg>
