<?xml version="1.0"?>
<svg xmlns="http://www.w3.org/2000/svg" xmlns:xlink="http://www.w3.org/1999/xlink" version="1.1" viewBox="0 0 224 224" width="30px" height="30px"><g fill="none" fill-rule="nonzero" stroke="none" stroke-width="1" stroke-linecap="butt" stroke-linejoin="miter" stroke-miterlimit="10" stroke-dasharray="" stroke-dashoffset="0" font-family="none" font-weight="none" font-size="none" text-anchor="none" style="mix-blend-mode: normal"><path d="M0,224v-224h224v224z" fill="none"/><g fill="#ffffff"><path d="M112,22.4c-49.28,0 -89.6,40.32 -89.6,89.6c0,49.28 40.32,89.6 89.6,89.6c49.28,0 89.6,-40.32 89.6,-89.6c0,-49.28 -40.32,-89.6 -89.6,-89.6zM147.3248,156.8c-1.64267,0 -2.464,-0.82133 -4.10667,-1.64267c-12.32,-7.39947 -27.92533,-11.49867 -44.352,-11.49867c-9.03467,0 -18.89067,1.64267 -27.104,3.28533c-1.64267,0 -3.28533,0.82133 -4.10667,0.82133c-3.28533,0 -5.74933,-2.464 -5.74933,-5.74933c0,-3.28533 1.64267,-5.74933 4.928,-5.74933c10.67733,-2.464 21.36213,-4.10667 32.8608,-4.10667c18.89067,0 36.13867,4.928 50.92267,13.14133c1.64267,1.64267 3.28533,2.464 3.28533,5.74933c-1.6576,4.10667 -4.1216,5.74933 -6.57813,5.74933zM156.352,133.81013c-1.64267,0 -3.28533,-0.82133 -4.928,-1.64267c-13.96267,-9.03467 -33.68213,-13.96267 -55.02933,-13.96267c-10.67733,0 -20.5408,1.64267 -27.92533,3.28533c-1.64267,0.82133 -2.464,0.82133 -4.10667,0.82133c-4.10667,0 -6.57813,-3.28533 -6.57813,-6.57813c0,-4.10667 1.64267,-5.74933 5.74933,-7.39947c9.856,-2.464 19.71947,-4.928 33.68213,-4.928c22.99733,0 44.352,5.74933 62.4288,16.42667c2.464,1.64267 4.10667,4.10667 4.10667,6.57813c-0.8288,4.10667 -3.28533,7.39947 -7.39947,7.39947zM167.02933,107.52c-1.64267,0 -2.464,-0.82133 -4.928,-1.64267c-16.42667,-9.03467 -40.24533,-14.784 -63.24267,-14.784c-11.49867,0 -23.81867,1.64267 -34.50347,4.10667c-1.64267,0 -2.464,0.82133 -4.928,0.82133c-4.928,0.8288 -8.21333,-3.28533 -8.21333,-8.20587c0,-4.92053 2.464,-7.39947 5.74933,-8.21333c13.1488,-3.2928 27.11147,-4.93547 41.89547,-4.93547c25.46133,0 51.744,5.74933 72.2848,16.42667c2.464,1.64267 4.928,4.10667 4.928,8.21333c-0.82133,4.928 -4.11413,8.21333 -9.04213,8.21333z"/></g></g></svg>
